<svg width="14" height="14" viewBox="0 0 14 14" fill="none" xmlns="http://www.w3.org/2000/svg">
<path d="M7.00004 13.6667C3.31804 13.6667 0.333374 10.682 0.333374 7C0.333374 3.318 3.31804 0.333328 7.00004 0.333328C10.682 0.333328 13.6667 3.318 13.6667 7C13.6667 10.682 10.682 13.6667 7.00004 13.6667ZM7.00004 12.3333C8.41453 12.3333 9.77108 11.7714 10.7713 10.7712C11.7715 9.77104 12.3334 8.41448 12.3334 7C12.3334 5.58551 11.7715 4.22895 10.7713 3.22876C9.77108 2.22856 8.41453 1.66666 7.00004 1.66666C5.58555 1.66666 4.229 2.22856 3.2288 3.22876C2.22861 4.22895 1.66671 5.58551 1.66671 7C1.66671 8.41448 2.22861 9.77104 3.2288 10.7712C4.229 11.7714 5.58555 12.3333 7.00004 12.3333ZM7.00004 5.66666C7.17685 5.66666 7.34642 5.7369 7.47145 5.86192C7.59647 5.98695 7.66671 6.15652 7.66671 6.33333V9.66666C7.66671 9.84347 7.59647 10.013 7.47145 10.1381C7.34642 10.2631 7.17685 10.3333 7.00004 10.3333C6.82323 10.3333 6.65366 10.2631 6.52864 10.1381C6.40361 10.013 6.33337 9.84347 6.33337 9.66666V6.33333C6.33337 6.15652 6.40361 5.98695 6.52864 5.86192C6.65366 5.7369 6.82323 5.66666 7.00004 5.66666ZM7.00004 5C6.82323 5 6.65366 4.92976 6.52864 4.80473C6.40361 4.67971 6.33337 4.51014 6.33337 4.33333C6.33337 4.15652 6.40361 3.98695 6.52864 3.86192C6.65366 3.7369 6.82323 3.66666 7.00004 3.66666C7.17685 3.66666 7.34642 3.7369 7.47145 3.86192C7.59647 3.98695 7.66671 4.15652 7.66671 4.33333C7.66671 4.51014 7.59647 4.67971 7.47145 4.80473C7.34642 4.92976 7.17685 5 7.00004 5Z" fill="#081944"/>
</svg>
