<svg width="25" height="24" viewBox="0 0 25 24" fill="none" xmlns="http://www.w3.org/2000/svg">
<path d="M13.6667 12H15.6667C15.9319 12 16.1863 12.1054 16.3738 12.2929C16.5614 12.4804 16.6667 12.7348 16.6667 13C16.6667 13.2652 16.5614 13.5196 16.3738 13.7071C16.1863 13.8947 15.9319 14 15.6667 14H12.6667C12.4015 14 12.1472 13.8947 11.9596 13.7071C11.7721 13.5196 11.6667 13.2652 11.6667 13V8.00001C11.6667 7.7348 11.7721 7.48044 11.9596 7.29291C12.1472 7.10537 12.4015 7.00001 12.6667 7.00001C12.9319 7.00001 13.1863 7.10537 13.3738 7.29291C13.5614 7.48044 13.6667 7.7348 13.6667 8.00001V12ZM21.2967 10.438C21.6941 11.7807 21.7727 13.1975 21.5263 14.5758C21.2799 15.9542 20.7153 17.256 19.8774 18.3779C19.0394 19.4997 17.9513 20.4105 16.6996 21.0379C15.4478 21.6653 14.0669 21.9921 12.6667 21.9921C11.2665 21.9921 9.88563 21.6653 8.63387 21.0379C7.38211 20.4105 6.29401 19.4997 5.4561 18.3779C4.61818 17.256 4.05358 15.9542 3.80717 14.5758C3.56077 13.1975 3.63937 11.7807 4.03672 10.438C3.56662 9.94184 3.20324 9.35455 2.96902 8.71242C2.73481 8.07029 2.63474 7.38695 2.675 6.70463C2.71526 6.0223 2.89499 5.35548 3.20308 4.74534C3.51118 4.13521 3.9411 3.59472 4.46629 3.15727C4.99148 2.71982 5.60078 2.39469 6.25656 2.20197C6.91234 2.00926 7.60067 1.95304 8.27903 2.0368C8.95739 2.12056 9.61137 2.34251 10.2006 2.68895C10.7898 3.03539 11.3017 3.49896 11.7047 4.05101C12.3443 3.98304 12.9892 3.98304 13.6287 4.05101C14.0317 3.49896 14.5437 3.03539 15.1329 2.68895C15.7221 2.34251 16.3761 2.12056 17.0544 2.0368C17.7328 1.95304 18.4211 2.00926 19.0769 2.20197C19.7327 2.39469 20.342 2.71982 20.8672 3.15727C21.3924 3.59472 21.8223 4.13521 22.1304 4.74534C22.4385 5.35548 22.6182 6.0223 22.6584 6.70463C22.6987 7.38695 22.5986 8.07029 22.3644 8.71242C22.1302 9.35455 21.7668 9.94184 21.2967 10.438ZM20.3587 8.32501C20.6566 7.72118 20.7427 7.0347 20.6031 6.37601C20.4636 5.71732 20.1065 5.12473 19.5893 4.69358C19.0722 4.26243 18.425 4.01778 17.752 3.99899C17.0789 3.9802 16.4191 4.18838 15.8787 4.59001C17.7441 5.30517 19.3197 6.61872 20.3587 8.32501ZM9.45372 4.59001C8.91333 4.18838 8.25353 3.9802 7.58048 3.99899C6.90744 4.01778 6.26028 4.26243 5.74312 4.69358C5.22597 5.12473 4.86889 5.71732 4.72933 6.37601C4.58977 7.0347 4.67585 7.72118 4.97372 8.32501C6.01278 6.61872 7.58835 5.30517 9.45372 4.59001ZM12.6667 20C13.586 20 14.4962 19.819 15.3455 19.4672C16.1948 19.1154 16.9665 18.5998 17.6165 17.9498C18.2665 17.2998 18.7821 16.5281 19.1339 15.6788C19.4857 14.8295 19.6667 13.9193 19.6667 13C19.6667 12.0808 19.4857 11.1705 19.1339 10.3212C18.7821 9.47195 18.2665 8.70028 17.6165 8.05027C16.9665 7.40026 16.1948 6.88464 15.3455 6.53286C14.4962 6.18108 13.586 6.00001 12.6667 6.00001C10.8102 6.00001 9.02973 6.73751 7.71698 8.05027C6.40422 9.36302 5.66672 11.1435 5.66672 13C5.66672 14.8565 6.40422 16.637 7.71698 17.9498C9.02973 19.2625 10.8102 20 12.6667 20Z" fill="#717DA7"/>
</svg>
