<svg viewBox="0 0 32 33" fill="none" >
<path d="M11.2187 17.3761L16.4853 22.6428C16.7222 22.8954 16.8515 23.2302 16.8459 23.5765C16.8403 23.9227 16.7002 24.2532 16.4552 24.498C16.2103 24.7427 15.8797 24.8826 15.5334 24.888C15.1872 24.8934 14.8524 24.7638 14.6 24.5268L7.05733 16.9854C6.93308 16.8619 6.83448 16.715 6.7672 16.5532C6.69992 16.3915 6.66528 16.218 6.66528 16.0428C6.66528 15.8676 6.69992 15.6941 6.7672 15.5323C6.83448 15.3705 6.93308 15.2236 7.05733 15.1001L14.6 7.55744C14.723 7.43009 14.8701 7.32852 15.0328 7.25864C15.1955 7.18876 15.3704 7.15198 15.5475 7.15044C15.7245 7.1489 15.9001 7.18264 16.0639 7.24968C16.2278 7.31672 16.3767 7.41572 16.5019 7.54091C16.627 7.66611 16.7261 7.81497 16.7931 7.97884C16.8601 8.1427 16.8939 8.31827 16.8923 8.49531C16.8908 8.67235 16.854 8.84731 16.7841 9.00998C16.7143 9.17265 16.6127 9.31978 16.4853 9.44277L11.2187 14.7094H24C24.3536 14.7094 24.6928 14.8499 24.9428 15.1C25.1929 15.35 25.3333 15.6892 25.3333 16.0428C25.3333 16.3964 25.1929 16.7355 24.9428 16.9856C24.6928 17.2356 24.3536 17.3761 24 17.3761H11.2187Z" fill="currentColor"/>
</svg>
