<svg width="24" height="24" viewBox="0 0 24 24" fill="none" xmlns="http://www.w3.org/2000/svg">
<path fill-rule="evenodd" clip-rule="evenodd" d="M14.0409 2.35776C13.3926 2.12324 12.7026 2 12 2C10.4087 2 8.88258 2.63214 7.75736 3.75736C6.63215 4.88258 6.00001 6.4087 6.00001 8V12.292C5.05512 13.1353 4.29933 14.1689 3.78229 15.325C3.26524 16.4811 2.99865 17.7335 3.00001 19H9.00001C9.00001 19.7956 9.31608 20.5587 9.87868 21.1213C10.4413 21.6839 11.2044 22 12 22C12.7957 22 13.5587 21.6839 14.1213 21.1213C14.6839 20.5587 15 19.7956 15 19H21C21.0014 17.7335 20.7348 16.4811 20.2177 15.325C19.7007 14.1689 18.9449 13.1353 18 12.292V8C18 7.96657 17.9997 7.93318 17.9992 7.89981C17.1909 7.7356 16.4535 7.37642 15.8381 6.87349C15.9446 7.23616 16 7.61522 16 8V13.186L16.666 13.782C17.6325 14.6445 18.3401 15.7586 18.71 17H5.29001C5.65987 15.7586 6.36755 14.6445 7.33401 13.782L8.00001 13.186V8C8.00001 6.93913 8.42143 5.92172 9.17158 5.17157C9.92172 4.42143 10.9391 4 12 4C12.8323 4 13.6379 4.25942 14.3087 4.73347C14.109 4.19341 14 3.60944 14 3C14 2.78239 14.0139 2.56803 14.0409 2.35776ZM12.7071 19.7071C12.5196 19.8946 12.2652 20 12 20C11.7348 20 11.4804 19.8946 11.2929 19.7071C11.1054 19.5196 11 19.2652 11 19H13C13 19.2652 12.8946 19.5196 12.7071 19.7071Z" fill="#081944"/>
<path d="M22 3C22 4.65685 20.6569 6 19 6C17.3431 6 16 4.65685 16 3C16 1.34315 17.3431 0 19 0C20.6569 0 22 1.34315 22 3Z" fill="#C4211B"/>
</svg>
