<svg width="14" height="14" viewBox="0 0 14 14" fill="none" xmlns="http://www.w3.org/2000/svg">
<path d="M5.00004 6.33334C4.82323 6.33334 4.65366 6.40358 4.52864 6.52861C4.40361 6.65363 4.33337 6.8232 4.33337 7.00001V9.66668C4.33337 10.3739 4.61433 11.0522 5.11442 11.5523C5.61452 12.0524 6.2928 12.3333 7.00004 12.3333C7.70728 12.3333 8.38556 12.0524 8.88566 11.5523C9.38576 11.0522 9.66671 10.3739 9.66671 9.66668V7.00001C9.66671 6.8232 9.59647 6.65363 9.47145 6.52861C9.34642 6.40358 9.17685 6.33334 9.00004 6.33334H5.00004ZM10.4907 5.66668H11.5887V3.66668C11.5887 3.48987 11.6589 3.3203 11.784 3.19527C11.909 3.07025 12.0786 3.00001 12.2554 3.00001C12.4322 3.00001 12.6018 3.07025 12.7268 3.19527C12.8518 3.3203 12.922 3.48987 12.922 3.66668V5.66668C12.922 6.0203 12.7816 6.35944 12.5315 6.60949C12.2815 6.85954 11.9423 7.00001 11.5887 7.00001H11V7.66668H13C13.1769 7.66668 13.3464 7.73692 13.4714 7.86194C13.5965 7.98696 13.6667 8.15653 13.6667 8.33334C13.6667 8.51016 13.5965 8.67972 13.4714 8.80475C13.3464 8.92977 13.1769 9.00001 13 9.00001H11V9.66668H11.5887C11.9423 9.66668 12.2815 9.80715 12.5315 10.0572C12.7816 10.3073 12.922 10.6464 12.922 11V13C12.922 13.1768 12.8518 13.3464 12.7268 13.4714C12.6018 13.5964 12.4322 13.6667 12.2554 13.6667C12.0786 13.6667 11.909 13.5964 11.784 13.4714C11.6589 13.3464 11.5887 13.1768 11.5887 13V11H10.7727C10.4971 11.7805 9.98623 12.4563 9.3105 12.9343C8.63477 13.4123 7.82742 13.669 6.99971 13.669C6.17199 13.669 5.36465 13.4123 4.68892 12.9343C4.01318 12.4563 3.50232 11.7805 3.22671 11H2.33337V13C2.33337 13.1768 2.26314 13.3464 2.13811 13.4714C2.01309 13.5964 1.84352 13.6667 1.66671 13.6667C1.4899 13.6667 1.32033 13.5964 1.1953 13.4714C1.07028 13.3464 1.00004 13.1768 1.00004 13V11C1.00004 10.6464 1.14052 10.3073 1.39057 10.0572C1.64061 9.80715 1.97975 9.66668 2.33337 9.66668H3.00004V9.00001H1.00004C0.82323 9.00001 0.65366 8.92977 0.528636 8.80475C0.403612 8.67972 0.333374 8.51016 0.333374 8.33334C0.333374 8.15653 0.403612 7.98696 0.528636 7.86194C0.65366 7.73692 0.82323 7.66668 1.00004 7.66668H3.00004V7.00001H2.33337C1.97975 7.00001 1.64061 6.85954 1.39057 6.60949C1.14052 6.35944 1.00004 6.0203 1.00004 5.66668V3.66668C1.00004 3.48987 1.07028 3.3203 1.1953 3.19527C1.32033 3.07025 1.4899 3.00001 1.66671 3.00001C1.84352 3.00001 2.01309 3.07025 2.13811 3.19527C2.26314 3.3203 2.33337 3.48987 2.33337 3.66668V5.66668H3.50937C3.73318 5.41593 4.01658 5.22562 4.33337 5.11334V3.66668C4.33337 3.31306 4.47385 2.97392 4.7239 2.72387C4.97395 2.47382 5.31309 2.33335 5.66671 2.33335H6.15804C5.92937 1.93468 5.49937 1.66668 5.00737 1.66668H3.66671C3.4899 1.66668 3.32033 1.59644 3.1953 1.47142C3.07028 1.34639 3.00004 1.17682 3.00004 1.00001C3.00004 0.823201 3.07028 0.653632 3.1953 0.528607C3.32033 0.403583 3.4899 0.333345 3.66671 0.333345H5.00671C5.38374 0.332915 5.75653 0.412843 6.10025 0.567803C6.44396 0.722762 6.75071 0.949194 7.00004 1.23201C7.24937 0.949194 7.55612 0.722762 7.89983 0.567803C8.24355 0.412843 8.61634 0.332915 8.99337 0.333345H10.3334C10.5102 0.333345 10.6798 0.403583 10.8048 0.528607C10.9298 0.653632 11 0.823201 11 1.00001C11 1.17682 10.9298 1.34639 10.8048 1.47142C10.6798 1.59644 10.5102 1.66668 10.3334 1.66668H8.99337C8.50004 1.66668 8.07071 1.93468 7.84204 2.33335H8.33337C8.687 2.33335 9.02613 2.47382 9.27618 2.72387C9.52623 2.97392 9.66671 3.31306 9.66671 3.66668V5.11334C9.98351 5.22562 10.2669 5.41593 10.4907 5.66668ZM5.66671 5.00001H8.33337V3.66668H5.66671V5.00001Z" fill="#081944"/>
</svg>
