<svg viewBox="0 0 17 16">
<path d="M8.00049 3.33333V2.66667C8.00049 2.48986 8.07073 2.32029 8.19575 2.19526C8.32078 2.07024 8.49034 2 8.66716 2C8.84397 2 9.01354 2.07024 9.13856 2.19526C9.26358 2.32029 9.33382 2.48986 9.33382 2.66667V3.33333H11.3338V2.66667C11.3338 2.48986 11.4041 2.32029 11.5291 2.19526C11.6541 2.07024 11.8237 2 12.0005 2C12.1773 2 12.3469 2.07024 12.4719 2.19526C12.5969 2.32029 12.6672 2.48986 12.6672 2.66667V3.33333H13.3338C13.8643 3.33333 14.373 3.54405 14.748 3.91912C15.1231 4.29419 15.3338 4.8029 15.3338 5.33333V12C15.3338 12.5304 15.1231 13.0391 14.748 13.4142C14.373 13.7893 13.8643 14 13.3338 14H4.00049C3.47006 14 2.96135 13.7893 2.58627 13.4142C2.2112 13.0391 2.00049 12.5304 2.00049 12V5.33333C2.00049 4.8029 2.2112 4.29419 2.58627 3.91912C2.96135 3.54405 3.47006 3.33333 4.00049 3.33333H4.66716V2.66667C4.66716 2.48986 4.73739 2.32029 4.86242 2.19526C4.98744 2.07024 5.15701 2 5.33382 2C5.51063 2 5.6802 2.07024 5.80523 2.19526C5.93025 2.32029 6.00049 2.48986 6.00049 2.66667V3.33333H8.00049ZM8.00049 4.66667H6.00049V5.33333C6.00049 5.51014 5.93025 5.67971 5.80523 5.80474C5.6802 5.92976 5.51063 6 5.33382 6C5.15701 6 4.98744 5.92976 4.86242 5.80474C4.73739 5.67971 4.66716 5.51014 4.66716 5.33333V4.66667H4.00049C3.82368 4.66667 3.65411 4.7369 3.52908 4.86193C3.40406 4.98695 3.33382 5.15652 3.33382 5.33333V12C3.33382 12.1768 3.40406 12.3464 3.52908 12.4714C3.65411 12.5964 3.82368 12.6667 4.00049 12.6667H13.3338C13.5106 12.6667 13.6802 12.5964 13.8052 12.4714C13.9303 12.3464 14.0005 12.1768 14.0005 12V5.33333C14.0005 5.15652 13.9303 4.98695 13.8052 4.86193C13.6802 4.7369 13.5106 4.66667 13.3338 4.66667H12.6672V5.33333C12.6672 5.51014 12.5969 5.67971 12.4719 5.80474C12.3469 5.92976 12.1773 6 12.0005 6C11.8237 6 11.6541 5.92976 11.5291 5.80474C11.4041 5.67971 11.3338 5.51014 11.3338 5.33333V4.66667H9.33382V5.33333C9.33382 5.51014 9.26358 5.67971 9.13856 5.80474C9.01354 5.92976 8.84397 6 8.66716 6C8.49034 6 8.32078 5.92976 8.19575 5.80474C8.07073 5.67971 8.00049 5.51014 8.00049 5.33333V4.66667ZM4.00049 7.33333H5.33382V8.66667H4.00049V7.33333ZM4.00049 10H5.33382V11.3333H4.00049V10ZM12.0005 10H13.3338V11.3333H12.0005V10ZM12.0005 7.33333H13.3338V8.66667H12.0005V7.33333ZM6.66716 7.33333H8.00049V8.66667H6.66716V7.33333ZM9.33382 7.33333H10.6672V8.66667H9.33382V7.33333ZM9.33382 10H10.6672V11.3333H9.33382V10ZM6.66716 10H8.00049V11.3333H6.66716V10Z" fill="currentColor"/>
</svg>
