<svg viewBox="0 0 36 36" fill="none" xmlns="http://www.w3.org/2000/svg">
<path d="M33 15.2445C32.511 15.5194 32.104 15.9195 31.8209 16.4038C31.5378 16.8881 31.3887 17.439 31.389 18C31.389 19.1835 32.0385 20.214 33 20.7555L31.9245 24.3645C31.3432 24.2645 30.7455 24.3293 30.1991 24.5517C29.6527 24.774 29.1796 25.1449 28.8332 25.6224C28.4869 26.0999 28.2812 26.6649 28.2396 27.2533C28.1979 27.8417 28.3219 28.43 28.5975 28.9515L25.5045 31.3545C25.095 31.0188 24.6076 30.7915 24.0873 30.6936C23.5669 30.5957 23.0303 30.6303 22.5268 30.7942C22.0233 30.9581 21.5691 31.246 21.2061 31.6315C20.8431 32.017 20.5829 32.4876 20.4495 33L15.5145 32.988C15.3796 32.478 15.1191 32.01 14.7567 31.6267C14.3943 31.2434 13.9416 30.9571 13.44 30.7939C12.9384 30.6306 12.4039 30.5958 11.8853 30.6924C11.3667 30.789 10.8807 31.0141 10.4715 31.347L7.3815 28.9245C7.64936 28.4051 7.76783 27.8216 7.72371 27.2389C7.6796 26.6562 7.47464 26.0971 7.13164 25.624C6.78864 25.1508 6.32107 24.7822 5.78097 24.559C5.24087 24.3358 4.64943 24.267 4.0725 24.36L3 20.7375C3.47992 20.4597 3.87827 20.0605 4.155 19.58C4.43174 19.0994 4.57711 18.5545 4.5765 18C4.5765 16.83 3.945 15.81 3 15.2625L4.0725 11.64C4.64955 11.7334 5.24119 11.6647 5.78152 11.4417C6.32186 11.2187 6.78968 10.85 7.13287 10.3768C7.47607 9.90365 7.68117 9.34447 7.72533 8.76159C7.7695 8.1787 7.65099 7.595 7.383 7.0755L10.47 4.653C10.8792 4.98593 11.3652 5.21099 11.8838 5.30762C12.4024 5.40424 12.9369 5.36935 13.4385 5.20613C13.9401 5.04291 14.3928 4.75656 14.7552 4.37327C15.1176 3.98997 15.3781 3.52196 15.513 3.012L20.451 3C20.5844 3.51241 20.8446 3.98302 21.2076 4.36849C21.5706 4.75396 22.0248 5.0419 22.5283 5.2058C23.0318 5.3697 23.5684 5.40428 24.0888 5.30637C24.6091 5.20845 25.0965 4.98119 25.506 4.6455L28.596 7.05C28.3204 7.57153 28.1964 8.15983 28.2381 8.74823C28.2797 9.33662 28.4854 9.90158 28.8317 10.3791C29.1781 10.8566 29.6512 11.2275 30.1976 11.4498C30.7439 11.6722 31.3417 11.737 31.923 11.637L33 15.243V15.2445ZM25.2345 8.52C25.2345 8.4255 25.2375 8.3325 25.242 8.238L25.122 8.145C23.9536 8.46329 22.7173 8.42984 21.5679 8.04882C20.4184 7.6678 19.4069 6.95616 18.66 6.003L17.304 6.006C16.5599 6.95512 15.5531 7.66449 14.409 8.04588C13.2648 8.42726 12.0338 8.46382 10.869 8.151L10.7265 8.265C10.783 9.61902 10.3915 10.9539 9.61274 12.063C8.83395 13.172 7.71127 13.9934 6.4185 14.4C7.17272 15.4482 7.57786 16.7072 7.5765 17.9985C7.5765 19.3215 7.1565 20.571 6.4185 21.5985C7.71127 22.0051 8.83395 22.8265 9.61274 23.9355C10.3915 25.0446 10.783 26.3795 10.7265 27.7335L10.8705 27.846C12.0351 27.5343 13.2656 27.5714 14.4093 27.9527C15.5529 28.334 16.5595 29.0428 17.304 29.991L18.66 29.994C19.4064 29.0407 20.4176 28.3288 21.5669 27.9478C22.7162 27.5667 23.9524 27.5334 25.1205 27.852L25.2405 27.759C25.1787 26.4008 25.5679 25.0603 26.3473 23.9463C27.1268 22.8323 28.2528 22.0073 29.55 21.6C28.7951 20.5515 28.3895 19.292 28.3905 18C28.3905 16.677 28.812 15.426 29.55 14.4C28.299 14.0067 27.206 13.2246 26.4302 12.1673C25.6543 11.1101 25.236 9.83289 25.236 8.5215L25.2345 8.52ZM18 24C16.4087 24 14.8826 23.3679 13.7574 22.2426C12.6321 21.1174 12 19.5913 12 18C12 16.4087 12.6321 14.8826 13.7574 13.7574C14.8826 12.6321 16.4087 12 18 12C19.5913 12 21.1174 12.6321 22.2426 13.7574C23.3679 14.8826 24 16.4087 24 18C24 19.5913 23.3679 21.1174 22.2426 22.2426C21.1174 23.3679 19.5913 24 18 24ZM18 21C18.7956 21 19.5587 20.6839 20.1213 20.1213C20.6839 19.5587 21 18.7956 21 18C21 17.2044 20.6839 16.4413 20.1213 15.8787C19.5587 15.3161 18.7956 15 18 15C17.2044 15 16.4413 15.3161 15.8787 15.8787C15.3161 16.4413 15 17.2044 15 18C15 18.7956 15.3161 19.5587 15.8787 20.1213C16.4413 20.6839 17.2044 21 18 21Z" fill="currentColor"/>
</svg>
