<svg width="25" height="24" viewBox="0 0 25 24" fill="none" xmlns="http://www.w3.org/2000/svg">
<path d="M6.33337 3H18.3334C18.8638 3 19.3725 3.21071 19.7476 3.58579C20.1227 3.96086 20.3334 4.46957 20.3334 5V12C20.3334 12.5304 20.1227 13.0391 19.7476 13.4142C19.3725 13.7893 18.8638 14 18.3334 14H6.33337V21C6.33337 21.2652 6.22802 21.5196 6.04048 21.7071C5.85294 21.8946 5.59859 22 5.33337 22C5.06816 22 4.8138 21.8946 4.62627 21.7071C4.43873 21.5196 4.33337 21.2652 4.33337 21V3C4.33337 2.73478 4.43873 2.48043 4.62627 2.29289C4.8138 2.10536 5.06816 2 5.33337 2C5.59859 2 5.85294 2.10536 6.04048 2.29289C6.22802 2.48043 6.33337 2.73478 6.33337 3ZM6.33337 12H18.3334V5H6.33337V12Z" fill="#3F69FF"/>
</svg>
