<svg width="14" height="14" viewBox="0 0 14 14" fill="none" xmlns="http://www.w3.org/2000/svg">
<path d="M13.6667 5.77534C13.4494 5.89752 13.2685 6.07536 13.1427 6.2906C13.0168 6.50583 12.9506 6.75069 12.9507 7.00001C12.9507 7.52601 13.2394 7.98401 13.6667 8.22468L13.1887 9.82868C12.9303 9.78423 12.6647 9.81305 12.4219 9.91186C12.179 10.0107 11.9687 10.1755 11.8148 10.3878C11.6609 10.6 11.5695 10.8511 11.551 11.1126C11.5324 11.3741 11.5876 11.6356 11.71 11.8673L10.3354 12.9353C10.1534 12.7861 9.93677 12.6851 9.7055 12.6416C9.47423 12.5981 9.23572 12.6135 9.01195 12.6863C8.78817 12.7592 8.58632 12.8871 8.42498 13.0585C8.26365 13.2298 8.148 13.4389 8.08871 13.6667L5.89537 13.6613C5.83543 13.4347 5.71963 13.2267 5.55856 13.0563C5.3975 12.886 5.1963 12.7587 4.97337 12.6862C4.75043 12.6136 4.51287 12.5981 4.28239 12.6411C4.05192 12.684 3.83589 12.784 3.65404 12.932L2.28071 11.8553C2.39976 11.6245 2.45241 11.3652 2.4328 11.1062C2.4132 10.8472 2.3221 10.5987 2.16966 10.3884C2.01721 10.1782 1.8094 10.0143 1.56936 9.91512C1.32931 9.81594 1.06645 9.78532 0.810041 9.82668L0.333374 8.21668C0.546674 8.09322 0.723717 7.91578 0.84671 7.70222C0.969702 7.48865 1.03431 7.24646 1.03404 7.00001C1.03404 6.48001 0.753374 6.02668 0.333374 5.78334L0.810041 4.17334C1.06651 4.21484 1.32946 4.18433 1.56961 4.08521C1.80976 3.98609 2.01767 3.82225 2.17021 3.61194C2.32274 3.40163 2.4139 3.15311 2.43352 2.89405C2.45315 2.63499 2.40048 2.37557 2.28137 2.14468L3.65337 1.06801C3.83522 1.21598 4.05125 1.31601 4.28173 1.35895C4.5122 1.4019 4.74976 1.38639 4.9727 1.31385C5.19563 1.2413 5.39683 1.11404 5.5579 0.943684C5.71896 0.773331 5.83476 0.565324 5.89471 0.338677L8.08937 0.333344C8.14867 0.561082 8.26431 0.770242 8.42565 0.941563C8.58699 1.11288 8.78884 1.24086 9.01261 1.3137C9.23639 1.38654 9.47489 1.40191 9.70617 1.3584C9.93744 1.31488 10.154 1.21387 10.336 1.06468L11.7094 2.13334C11.5869 2.36514 11.5318 2.6266 11.5503 2.88811C11.5688 3.14962 11.6602 3.40071 11.8141 3.61293C11.9681 3.82515 12.1784 3.99001 12.4212 4.08883C12.664 4.18764 12.9297 4.21646 13.188 4.17201L13.6667 5.77468V5.77534ZM10.2154 2.78668C10.2154 2.74468 10.2167 2.70334 10.2187 2.66134L10.1654 2.62001C9.6461 2.76147 9.09663 2.7466 8.58576 2.57726C8.07489 2.40792 7.62534 2.09164 7.29337 1.66801L6.69071 1.66934C6.35999 2.09117 5.91253 2.40645 5.40402 2.57596C4.89551 2.74546 4.34838 2.76171 3.83071 2.62268L3.76737 2.67334C3.79248 3.27513 3.6185 3.86841 3.27237 4.36133C2.92624 4.85425 2.42727 5.21931 1.85271 5.40001C2.18792 5.86587 2.36798 6.42542 2.36737 6.99934C2.36737 7.58734 2.18071 8.14268 1.85271 8.59934C2.42727 8.78004 2.92624 9.14511 3.27237 9.63803C3.6185 10.1309 3.79248 10.7242 3.76737 11.326L3.83137 11.376C4.34897 11.2375 4.89585 11.254 5.40415 11.4234C5.91246 11.5929 6.35981 11.9079 6.69071 12.3293L7.29337 12.3307C7.62512 11.907 8.07455 11.5906 8.58534 11.4213C9.09612 11.2519 9.64554 11.2371 10.1647 11.3787L10.218 11.3373C10.1906 10.7337 10.3635 10.1379 10.71 9.64279C11.0564 9.14768 11.5569 8.78105 12.1334 8.60001C11.7979 8.13401 11.6176 7.57422 11.618 7.00001C11.618 6.41201 11.8054 5.85601 12.1334 5.40001C11.5774 5.22522 11.0916 4.8776 10.7468 4.40771C10.402 3.93782 10.216 3.37018 10.216 2.78734L10.2154 2.78668ZM7.00004 9.66668C6.2928 9.66668 5.61452 9.38573 5.11442 8.88563C4.61433 8.38553 4.33337 7.70725 4.33337 7.00001C4.33337 6.29277 4.61433 5.61449 5.11442 5.11439C5.61452 4.6143 6.2928 4.33334 7.00004 4.33334C7.70728 4.33334 8.38556 4.6143 8.88566 5.11439C9.38576 5.61449 9.66671 6.29277 9.66671 7.00001C9.66671 7.70725 9.38576 8.38553 8.88566 8.88563C8.38556 9.38573 7.70728 9.66668 7.00004 9.66668ZM7.00004 8.33334C7.35366 8.33334 7.6928 8.19287 7.94285 7.94282C8.1929 7.69277 8.33337 7.35363 8.33337 7.00001C8.33337 6.64639 8.1929 6.30725 7.94285 6.0572C7.6928 5.80715 7.35366 5.66668 7.00004 5.66668C6.64642 5.66668 6.30728 5.80715 6.05723 6.0572C5.80718 6.30725 5.66671 6.64639 5.66671 7.00001C5.66671 7.35363 5.80718 7.69277 6.05723 7.94282C6.30728 8.19287 6.64642 8.33334 7.00004 8.33334Z" fill="#081944"/>
</svg>
