<svg viewBox="0 0 24 24" >
<path d="M19.33 6.69404L19.75 5.31704C19.7884 5.19143 19.8512 5.07462 19.9347 4.97327C20.0183 4.87192 20.121 4.78802 20.237 4.72637C20.3529 4.66471 20.4799 4.6265 20.6107 4.61392C20.7414 4.60133 20.8734 4.61463 20.999 4.65304C21.1246 4.69145 21.2414 4.75423 21.3427 4.83779C21.4441 4.92134 21.528 5.02404 21.5897 5.14002C21.6513 5.256 21.6895 5.38299 21.7021 5.51374C21.7147 5.64449 21.7014 5.77643 21.663 5.90204L20.493 9.72704C20.4154 9.98053 20.2404 10.1929 20.0064 10.3174C19.7724 10.4419 19.4985 10.4684 19.245 10.391L15.42 9.22104C15.2917 9.18495 15.172 9.12359 15.0678 9.04058C14.9636 8.95757 14.8771 8.85458 14.8132 8.73765C14.7494 8.62073 14.7096 8.49222 14.6961 8.35969C14.6826 8.22716 14.6957 8.09326 14.7347 7.96587C14.7737 7.83849 14.8377 7.72017 14.923 7.61787C15.0084 7.51557 15.1133 7.43136 15.2316 7.37017C15.35 7.30898 15.4793 7.27206 15.6121 7.26156C15.7449 7.25106 15.8785 7.2672 16.005 7.30904L17.677 7.82004C16.9378 6.69894 15.9068 5.80072 14.695 5.22212C13.4832 4.64353 12.1366 4.40648 10.8 4.53652C9.4635 4.66655 8.18777 5.15873 7.11023 5.96006C6.03268 6.76138 5.19416 7.84149 4.68498 9.08404L4.42498 9.71704C4.37769 9.842 4.30584 9.95621 4.21368 10.0529C4.12152 10.1497 4.01091 10.2269 3.88839 10.2802C3.76586 10.3335 3.63391 10.3616 3.50031 10.3631C3.36672 10.3645 3.23419 10.3391 3.11056 10.2885C2.98694 10.2378 2.87471 10.1629 2.78052 10.0681C2.68633 9.97339 2.61208 9.86072 2.56215 9.7368C2.51222 9.61288 2.48764 9.48021 2.48984 9.34662C2.49204 9.21304 2.52099 9.08125 2.57498 8.95904L2.83498 8.32604C3.48121 6.74932 4.54469 5.37839 5.91125 4.36046C7.27781 3.34253 8.89583 2.71604 10.5916 2.54827C12.2873 2.3805 13.9967 2.67777 15.5362 3.40817C17.0758 4.13858 18.3873 5.27452 19.33 6.69404ZM3.80798 17.307L3.48098 18.618C3.45172 18.7481 3.39677 18.8709 3.31935 18.9794C3.24193 19.0879 3.14362 19.1798 3.03017 19.2497C2.91673 19.3197 2.79045 19.3662 2.65876 19.3867C2.52706 19.4071 2.39261 19.401 2.26331 19.3688C2.134 19.3365 2.01245 19.2787 1.90579 19.1988C1.79913 19.1189 1.70952 19.0185 1.64222 18.9035C1.57493 18.7884 1.53131 18.6611 1.51392 18.529C1.49653 18.3968 1.50573 18.2626 1.54098 18.134L2.50798 14.254C2.5406 14.1219 2.59984 13.9979 2.68208 13.8895C2.76431 13.781 2.86781 13.6906 2.98623 13.6235C3.10465 13.5565 3.23551 13.5143 3.37079 13.4996C3.50607 13.4849 3.64292 13.498 3.77298 13.538L7.60098 14.492C7.85837 14.5562 8.07972 14.72 8.21634 14.9474C8.35296 15.1748 8.39366 15.4471 8.32948 15.7045C8.26529 15.9619 8.10149 16.1833 7.8741 16.3199C7.64671 16.4565 7.37437 16.4972 7.11698 16.433L5.33098 15.988C6.09449 17.1569 7.17373 18.0853 8.44352 18.6657C9.7133 19.246 11.1216 19.4545 12.5051 19.2669C13.8885 19.0793 15.1904 18.5033 16.2598 17.6058C17.3292 16.7083 18.1223 15.526 18.547 14.196C18.6276 13.9433 18.8053 13.7329 19.0411 13.6112C19.1578 13.5509 19.2852 13.5143 19.4161 13.5032C19.547 13.4922 19.6788 13.5071 19.804 13.547C19.9291 13.587 20.0452 13.6511 20.1455 13.7359C20.2459 13.8207 20.3285 13.9244 20.3888 14.0411C20.4491 14.1579 20.4858 14.2853 20.4968 14.4162C20.5078 14.5471 20.4929 14.6789 20.453 14.804C20.0367 16.11 19.3392 17.3089 18.4097 18.3163C17.4802 19.3237 16.3413 20.1152 15.073 20.635C13.0968 21.4446 10.9036 21.5561 8.85553 20.951C6.80745 20.346 5.02694 19.0606 3.80798 17.307Z" fill="#F4CC14"/>
</svg>
