<svg viewBox="0 0 20 20" >
<path d="M10 20C4.477 20 0 15.523 0 10C0 4.477 4.477 0 10 0C15.523 0 20 4.477 20 10C20 15.523 15.523 20 10 20ZM10 18C12.1217 18 14.1566 17.1571 15.6569 15.6569C17.1571 14.1566 18 12.1217 18 10C18 7.87827 17.1571 5.84344 15.6569 4.34315C14.1566 2.84285 12.1217 2 10 2C7.87827 2 5.84344 2.84285 4.34315 4.34315C2.84285 5.84344 2 7.87827 2 10C2 12.1217 2.84285 14.1566 4.34315 15.6569C5.84344 17.1571 7.87827 18 10 18ZM10 15C9.73478 15 9.48043 14.8946 9.29289 14.7071C9.10536 14.5196 9 14.2652 9 14C9 13.7348 9.10536 13.4804 9.29289 13.2929C9.48043 13.1054 9.73478 13 10 13C10.2652 13 10.5196 13.1054 10.7071 13.2929C10.8946 13.4804 11 13.7348 11 14C11 14.2652 10.8946 14.5196 10.7071 14.7071C10.5196 14.8946 10.2652 15 10 15ZM11.276 11.782C11.067 11.9454 10.8017 12.019 10.5384 11.9868C10.2751 11.9545 10.0354 11.819 9.872 11.61C9.70863 11.401 9.63497 11.1357 9.66722 10.8724C9.69948 10.6091 9.83501 10.3694 10.044 10.206L10.438 9.898C10.5939 9.77698 10.7245 9.62637 10.8221 9.4548C10.9197 9.28323 10.9825 9.09409 11.0069 8.89821C11.0312 8.70232 11.0167 8.50356 10.9641 8.3133C10.9115 8.12304 10.8219 7.94504 10.7003 7.78949C10.5788 7.63395 10.4278 7.50392 10.2559 7.40686C10.084 7.3098 9.89467 7.24762 9.69871 7.22388C9.50275 7.20015 9.30403 7.21532 9.11395 7.26854C8.92386 7.32176 8.74615 7.41197 8.591 7.534L8.197 7.842C8.09398 7.92729 7.97489 7.99106 7.84679 8.02951C7.71869 8.06797 7.58418 8.08033 7.45121 8.06588C7.31825 8.05143 7.18953 8.01045 7.07269 7.94537C6.95584 7.88029 6.85324 7.79243 6.77095 7.68699C6.68866 7.58155 6.62836 7.46068 6.59361 7.33152C6.55886 7.20237 6.55038 7.06755 6.56866 6.93506C6.58694 6.80257 6.63161 6.67509 6.70003 6.56017C6.76845 6.44524 6.85923 6.34522 6.967 6.266L7.36 5.958C8.09147 5.38646 9.02002 5.1289 9.94139 5.24198C10.8628 5.35507 11.7015 5.82953 12.273 6.561C12.8445 7.29247 13.1021 8.22102 12.989 9.14239C12.8759 10.0638 12.4015 10.9025 11.67 11.474L11.276 11.782Z" fill="currentColor"/>
</svg>
