<svg width="10" height="12" viewBox="0 0 10 12" fill="none" xmlns="http://www.w3.org/2000/svg">
<path d="M2.6093 5.21867H6.37063C6.45818 5.21867 6.54487 5.23591 6.62576 5.26941C6.70664 5.30292 6.78013 5.35202 6.84204 5.41393C6.90394 5.47583 6.95305 5.54933 6.98655 5.63021C7.02006 5.71109 7.0373 5.79779 7.0373 5.88533C7.0373 5.97288 7.02006 6.05957 6.98655 6.14046C6.95305 6.22134 6.90394 6.29483 6.84204 6.35674C6.78013 6.41864 6.70664 6.46775 6.62576 6.50125C6.54487 6.53476 6.45818 6.552 6.37063 6.552H2.6093L3.3573 7.3C3.48231 7.42509 3.5525 7.59472 3.55244 7.77157C3.55237 7.94842 3.48206 8.118 3.35697 8.243C3.23187 8.36801 3.06225 8.4382 2.8854 8.43814C2.70855 8.43807 2.53897 8.36776 2.41397 8.24267L0.528634 6.35733C0.46641 6.29555 0.417026 6.22207 0.383326 6.14112C0.349625 6.06017 0.332275 5.97335 0.332275 5.88567C0.332275 5.79798 0.349625 5.71116 0.383326 5.63021C0.417026 5.54926 0.46641 5.47578 0.528634 5.414L2.4133 3.52867C2.53831 3.40357 2.70789 3.33326 2.88473 3.3332C3.06158 3.33314 3.23121 3.40333 3.3563 3.52833C3.48139 3.65334 3.55171 3.82292 3.55177 3.99976C3.55183 4.17661 3.48164 4.34624 3.35663 4.47133L2.6093 5.21867ZM8.99997 0C9.17678 0 9.34635 0.0702379 9.47137 0.195262C9.5964 0.320286 9.66663 0.489856 9.66663 0.666667V11.3333C9.66663 11.5101 9.5964 11.6797 9.47137 11.8047C9.34635 11.9298 9.17678 12 8.99997 12C8.82316 12 8.65359 11.9298 8.52856 11.8047C8.40354 11.6797 8.3333 11.5101 8.3333 11.3333V0.666667C8.3333 0.489856 8.40354 0.320286 8.52856 0.195262C8.65359 0.0702379 8.82316 0 8.99997 0Z" fill="#081944"/>
</svg>
