<svg viewBox="0 0 24 24">
<path d="M8 15.5169L7.388 14.2589C7.29567 14.068 7.14509 13.9115 6.958 13.8119L4.958 12.7519C4.75218 12.6424 4.59106 12.4645 4.50251 12.2488C4.41395 12.0332 4.40351 11.7934 4.473 11.5709L5.183 9.29785C5.24358 9.1038 5.24358 8.8959 5.183 8.70185L4.473 6.42885C4.40333 6.20608 4.41378 5.96596 4.50254 5.75008C4.5913 5.53421 4.75278 5.35618 4.959 5.24685L6.958 4.18685C7.14493 4.08745 7.29549 3.93129 7.388 3.74085L8.393 1.67385C8.49965 1.45464 8.68269 1.28194 8.90772 1.18821C9.13276 1.09447 9.38428 1.08617 9.615 1.16485L11.677 1.86785C11.8864 1.93932 12.1136 1.93932 12.323 1.86785L14.385 1.16485C14.6158 1.08624 14.8675 1.09469 15.0925 1.18862C15.3176 1.28254 15.5005 1.45546 15.607 1.67485L16.612 3.74085C16.7043 3.93166 16.8549 4.08819 17.042 4.18785L19.042 5.24785C19.2478 5.35731 19.4089 5.53524 19.4975 5.75088C19.5861 5.96652 19.5965 6.20633 19.527 6.42885L18.817 8.70185C18.7564 8.8959 18.7564 9.1038 18.817 9.29785L19.527 11.5709C19.5967 11.7936 19.5862 12.0337 19.4975 12.2496C19.4087 12.4655 19.2472 12.6435 19.041 12.7529L17.042 13.8129C16.8551 13.9123 16.7045 14.0684 16.612 14.2589L16 15.5169V22.3959L12 21.0379L8 22.3959V15.5159V15.5169ZM10 16.7039V19.6039L12 18.9249L14 19.6049V16.7039L12.323 16.1319C12.1136 16.0604 11.8864 16.0604 11.677 16.1319L10 16.7039ZM14.813 13.3839C15.0911 12.8117 15.5439 12.3428 16.106 12.0449L17.37 11.3749L16.908 9.89485C16.7258 9.31209 16.7258 8.68762 16.908 8.10485L17.37 6.62485L16.106 5.95485C15.5438 5.65664 15.091 5.18736 14.813 4.61485L14.194 3.34285L12.968 3.76085C12.3404 3.9748 11.6596 3.9748 11.032 3.76085L9.806 3.34285L9.187 4.61585C8.90887 5.18799 8.45607 5.6569 7.894 5.95485L6.63 6.62485L7.092 8.10485C7.27415 8.68762 7.27415 9.31209 7.092 9.89485L6.63 11.3749L7.894 12.0449C8.45622 12.3431 8.90904 12.8123 9.187 13.3849L9.806 14.6569L11.032 14.2389C11.6596 14.0249 12.3404 14.0249 12.968 14.2389L14.194 14.6569L14.813 13.3839ZM12 5.99985C12.2652 5.99985 12.5196 6.10521 12.7071 6.29274C12.8946 6.48028 13 6.73463 13 6.99985V10.9999C13 11.2651 12.8946 11.5194 12.7071 11.707C12.5196 11.8945 12.2652 11.9999 12 11.9999C11.7348 11.9999 11.4804 11.8945 11.2929 11.707C11.1054 11.5194 11 11.2651 11 10.9999V6.99985C11 6.73463 11.1054 6.48028 11.2929 6.29274C11.4804 6.10521 11.7348 5.99985 12 5.99985Z" fill="currentColor"/>
</svg>
