<svg width="24" height="24" viewBox="0 0 24 24" fill="none" xmlns="http://www.w3.org/2000/svg">
<path d="M6 12C6 16.43 9.478 20 13.742 20C14.4 20 15.044 19.915 15.664 19.752C12.668 17.552 10.768 13.966 10.768 10C10.768 7.91 11.295 5.905 12.257 4.147C8.699 4.863 6 8.097 6 12ZM12.768 10C12.768 14.632 15.836 18.528 20 19.665C18.2628 21.1708 16.041 21.9999 13.742 22C8.362 22 4 17.523 4 12C4 6.477 8.362 2 13.742 2C14.61 2 15.452 2.117 16.253 2.335C15.1542 3.28612 14.2739 4.46347 13.6724 5.78644C13.0709 7.1094 12.7624 8.54673 12.768 10Z" fill="#081944"/>
</svg>
