<svg viewBox="0 0 16 16" >
<path d="M8.93343 7.59998V4.26664C8.93343 4.08983 8.86319 3.92026 8.73817 3.79524C8.61314 3.67021 8.44357 3.59998 8.26676 3.59998C8.08995 3.59998 7.92038 3.67021 7.79536 3.79524C7.67034 3.92026 7.6001 4.08983 7.6001 4.26664V7.59998H4.26676C4.08995 7.59998 3.92038 7.67021 3.79536 7.79524C3.67034 7.92026 3.6001 8.08983 3.6001 8.26664C3.6001 8.44345 3.67034 8.61302 3.79536 8.73805C3.92038 8.86307 4.08995 8.93331 4.26676 8.93331H7.6001V12.2666C7.6001 12.4435 7.67034 12.613 7.79536 12.738C7.92038 12.8631 8.08995 12.9333 8.26676 12.9333C8.44357 12.9333 8.61314 12.8631 8.73817 12.738C8.86319 12.613 8.93343 12.4435 8.93343 12.2666V8.93331H12.2668C12.4436 8.93331 12.6131 8.86307 12.7382 8.73805C12.8632 8.61302 12.9334 8.44345 12.9334 8.26664C12.9334 8.08983 12.8632 7.92026 12.7382 7.79524C12.6131 7.67021 12.4436 7.59998 12.2668 7.59998H8.93343Z" fill="currentColor"/>
</svg>
