<svg viewBox="0 0 24 24">
<path d="M16.95 9.87923L16.243 9.17223C16.0553 8.98472 15.9499 8.73035 15.9498 8.46508C15.9497 8.19981 16.055 7.94537 16.2425 7.75773C16.43 7.57009 16.6844 7.46462 16.9496 7.46453C17.2149 7.46443 17.4693 7.56972 17.657 7.75723L18.364 8.46423L19.778 7.05023L16.95 4.22223L4.22198 16.9502L7.04999 19.7782L8.46399 18.3642L7.04999 16.9502C6.86783 16.7616 6.76703 16.509 6.76931 16.2468C6.77159 15.9846 6.87676 15.7338 7.06217 15.5484C7.24757 15.363 7.49839 15.2578 7.76058 15.2556C8.02278 15.2533 8.27538 15.3541 8.46399 15.5362L9.87999 16.9502L11.294 15.5362L10.587 14.8282C10.4092 14.6389 10.312 14.3878 10.3161 14.1282C10.3201 13.8685 10.425 13.6205 10.6086 13.4368C10.7922 13.2531 11.04 13.148 11.2997 13.1438C11.5594 13.1396 11.8105 13.2366 12 13.4142L12.707 14.1212L14.121 12.7072L12.707 11.2932C12.5248 11.1046 12.424 10.852 12.4263 10.5898C12.4286 10.3276 12.5338 10.0768 12.7192 9.89141C12.9046 9.706 13.1554 9.60083 13.4176 9.59856C13.6798 9.59628 13.9324 9.69707 14.121 9.87923L15.536 11.2932L16.95 9.87923ZM2.80799 15.5362L15.536 2.80823C15.911 2.43329 16.4197 2.22266 16.95 2.22266C17.4803 2.22266 17.9889 2.43329 18.364 2.80823L21.192 5.63623C21.5669 6.01128 21.7776 6.5199 21.7776 7.05023C21.7776 7.58056 21.5669 8.08917 21.192 8.46423L8.46399 21.1922C8.08893 21.5672 7.58031 21.7778 7.04999 21.7778C6.51966 21.7778 6.01104 21.5672 5.63598 21.1922L2.80799 18.3642C2.43304 17.9892 2.22241 17.4806 2.22241 16.9502C2.22241 16.4199 2.43304 15.9113 2.80799 15.5362Z" fill="currentColor"/>
</svg>
