<svg viewBox="0 0 32 33" >
<path d="M16.0001 29.8332C8.63608 29.8332 2.66675 23.8638 2.66675 16.4998C2.66675 9.13584 8.63608 3.1665 16.0001 3.1665C23.3641 3.1665 29.3334 9.13584 29.3334 16.4998C29.3334 23.8638 23.3641 29.8332 16.0001 29.8332ZM16.0001 27.1665C18.8291 27.1665 21.5422 26.0427 23.5426 24.0423C25.5429 22.0419 26.6667 19.3288 26.6667 16.4998C26.6667 13.6709 25.5429 10.9578 23.5426 8.95737C21.5422 6.95698 18.8291 5.83317 16.0001 5.83317C13.1711 5.83317 10.458 6.95698 8.45761 8.95737C6.45722 10.9578 5.33341 13.6709 5.33341 16.4998C5.33341 19.3288 6.45722 22.0419 8.45761 24.0423C10.458 26.0427 13.1711 27.1665 16.0001 27.1665ZM10.7734 21.0252C10.7044 20.8641 10.6678 20.691 10.6658 20.5158C10.6637 20.3405 10.6961 20.1666 10.7612 20.0039C10.8264 19.8412 10.9229 19.693 11.0453 19.5676C11.1677 19.4422 11.3137 19.3422 11.4747 19.2732C11.6358 19.2042 11.8089 19.1676 11.9842 19.1655C12.1594 19.1634 12.3333 19.1959 12.496 19.261C12.6587 19.3261 12.807 19.4226 12.9323 19.5451C13.0577 19.6675 13.1578 19.8134 13.2267 19.9745C13.4598 20.5168 13.8468 20.9788 14.3397 21.3034C14.8326 21.6281 15.4099 21.8011 16.0001 21.8011C16.5903 21.8011 17.1676 21.6281 17.6605 21.3034C18.1534 20.9788 18.5403 20.5168 18.7734 19.9745C18.8424 19.8134 18.9424 19.6675 19.0678 19.5451C19.1932 19.4226 19.3415 19.3261 19.5042 19.261C19.6669 19.1959 19.8408 19.1634 20.016 19.1655C20.1912 19.1676 20.3643 19.2042 20.5254 19.2732C20.6865 19.3422 20.8324 19.4422 20.9549 19.5676C21.0773 19.693 21.1738 19.8412 21.2389 20.0039C21.3041 20.1666 21.3365 20.3405 21.3344 20.5158C21.3323 20.691 21.2957 20.8641 21.2267 21.0252C20.7887 22.0485 20.06 22.9207 19.1309 23.5336C18.2018 24.1466 17.1132 24.4733 16.0001 24.4733C14.887 24.4733 13.7984 24.1466 12.8693 23.5336C11.9402 22.9207 11.2114 22.0485 10.7734 21.0252ZM12.0001 11.1665C12.3537 11.1665 12.6928 11.307 12.9429 11.557C13.1929 11.8071 13.3334 12.1462 13.3334 12.4998V15.1665C13.3334 15.5201 13.1929 15.8593 12.9429 16.1093C12.6928 16.3594 12.3537 16.4998 12.0001 16.4998C11.6465 16.4998 11.3073 16.3594 11.0573 16.1093C10.8072 15.8593 10.6667 15.5201 10.6667 15.1665V12.4998C10.6667 12.1462 10.8072 11.8071 11.0573 11.557C11.3073 11.307 11.6465 11.1665 12.0001 11.1665ZM20.0001 11.1665C20.3537 11.1665 20.6928 11.307 20.9429 11.557C21.1929 11.8071 21.3334 12.1462 21.3334 12.4998V15.1665C21.3334 15.5201 21.1929 15.8593 20.9429 16.1093C20.6928 16.3594 20.3537 16.4998 20.0001 16.4998C19.6465 16.4998 19.3073 16.3594 19.0573 16.1093C18.8072 15.8593 18.6667 15.5201 18.6667 15.1665V12.4998C18.6667 12.1462 18.8072 11.8071 19.0573 11.557C19.3073 11.307 19.6465 11.1665 20.0001 11.1665Z" fill="currentColor"/>
</svg>
