<svg width="14" height="10" viewBox="0 0 14 10" fill="none" xmlns="http://www.w3.org/2000/svg">
<path d="M5.48623 9.72999C5.35497 9.73025 5.22494 9.7046 5.10361 9.65449C4.98229 9.60438 4.87205 9.5308 4.77923 9.43799L0.537232 5.19499C0.441659 5.10281 0.365401 4.99252 0.312907 4.87055C0.260414 4.74858 0.232736 4.61738 0.231489 4.48461C0.230243 4.35183 0.255452 4.22013 0.305646 4.0972C0.35584 3.97427 0.430013 3.86257 0.523839 3.76861C0.617664 3.67465 0.729262 3.60032 0.852122 3.54995C0.974981 3.49958 1.10664 3.47419 1.23942 3.47525C1.3722 3.47631 1.50344 3.5038 1.62548 3.55612C1.74752 3.60844 1.85792 3.68454 1.95023 3.77999L5.48523 7.31499L11.8502 0.951986C12.0377 0.764345 12.2921 0.658877 12.5574 0.658783C12.8226 0.658689 13.0771 0.763978 13.2647 0.951486C13.4524 1.13899 13.5578 1.39336 13.5579 1.65863C13.558 1.9239 13.4527 2.17834 13.2652 2.36599L6.19323 9.43799C6.10041 9.5308 5.99018 9.60438 5.86885 9.65449C5.74752 9.7046 5.6175 9.73025 5.48623 9.72999Z" fill="#68BC44"/>
</svg>
