<svg width="16" height="14" viewBox="0 0 16 14" fill="none" xmlns="http://www.w3.org/2000/svg">
<path d="M14.8431 0.618489C14.6533 0.460578 14.4242 0.357086 14.1802 0.319026C13.9363 0.280965 13.6866 0.309761 13.4577 0.402349L1.5104 5.22592C1.2549 5.33104 1.03741 5.51138 0.886799 5.74299C0.736188 5.97461 0.659578 6.24656 0.667136 6.52273C0.674694 6.79891 0.766064 7.06626 0.929118 7.28929C1.09217 7.51233 1.3192 7.6805 1.58007 7.77149L3.99673 8.61198L5.34373 13.0664C5.36204 13.1259 5.3886 13.1826 5.42265 13.2347C5.42782 13.2427 5.43511 13.2486 5.4406 13.2564C5.47994 13.3113 5.52748 13.3598 5.58155 13.4002C5.59693 13.412 5.61166 13.4229 5.6281 13.4334C5.69139 13.4753 5.76148 13.506 5.83525 13.5241L5.84315 13.5248L5.84762 13.5267C5.89198 13.5357 5.93712 13.5403 5.98239 13.5403C5.98674 13.5403 5.99061 13.5383 5.99492 13.5382C6.06323 13.537 6.13094 13.5252 6.19565 13.5033C6.2107 13.4982 6.2236 13.4896 6.23821 13.4834C6.28646 13.4634 6.33217 13.4378 6.3744 13.4071C6.40821 13.3786 6.44204 13.3501 6.47588 13.3216L8.27732 11.3327L10.9642 13.4141C11.2007 13.5982 11.4919 13.6983 11.7916 13.6986C12.1058 13.6982 12.4102 13.5898 12.6539 13.3916C12.8976 13.1934 13.0658 12.9174 13.1302 12.61L15.3053 1.9323C15.3546 1.69197 15.3376 1.44277 15.2562 1.21135C15.1748 0.979936 15.032 0.775006 14.8431 0.618489ZM6.24673 8.82422C6.15429 8.91629 6.0911 9.03361 6.06509 9.16146L5.85875 10.1641L5.33605 8.43542L8.04621 7.02412L6.24673 8.82422ZM11.7812 12.36L8.60611 9.90037C8.47327 9.79772 8.30663 9.74889 8.1394 9.76361C7.97217 9.77833 7.81662 9.85552 7.70376 9.9798L7.12682 10.6166L7.33071 9.62563L12.0527 4.90363C12.1654 4.79107 12.2341 4.64187 12.2463 4.48304C12.2585 4.32422 12.2134 4.16629 12.1192 4.03784C12.025 3.9094 11.8879 3.81894 11.7327 3.78285C11.5776 3.74677 11.4146 3.76744 11.2734 3.84113L4.49657 7.36955L2.01366 6.46094L13.9993 1.666L11.7812 12.36Z" fill="#081944"/>
</svg>
