<svg viewBox="0 0 24 24">
<path d="M14.8 4.61286L21.501 15.7739C22.464 17.3769 21.991 19.4859 20.444 20.4839C19.9248 20.8201 19.3196 20.9992 18.701 20.9999H5.298C3.477 20.9999 2 19.4699 2 17.5809C2 16.9419 2.173 16.3169 2.498 15.7739L9.2 4.61286C10.162 3.00986 12.196 2.51886 13.743 3.51686C14.171 3.79286 14.533 4.16786 14.8 4.61286ZM12.58 5.45186C12.4576 5.37311 12.3205 5.32 12.1769 5.29574C12.0334 5.27147 11.8865 5.27654 11.745 5.31066C11.6035 5.34477 11.4703 5.40722 11.3536 5.49422C11.2369 5.58122 11.1391 5.69098 11.066 5.81686L4.365 16.9799C4.25615 17.1618 4.19877 17.3699 4.199 17.5819C4.199 18.2119 4.691 18.7219 5.299 18.7219H18.7C18.906 18.7219 19.107 18.6619 19.281 18.5499C19.5307 18.384 19.7067 18.1281 19.7725 17.8357C19.8383 17.5432 19.7886 17.2367 19.634 16.9799L12.933 5.81686C12.8451 5.66988 12.7247 5.54501 12.581 5.45186H12.58ZM12 16.9999C11.7348 16.9999 11.4804 16.8945 11.2929 16.707C11.1054 16.5194 11 16.2651 11 15.9999C11 15.7346 11.1054 15.4803 11.2929 15.2928C11.4804 15.1052 11.7348 14.9999 12 14.9999C12.2652 14.9999 12.5196 15.1052 12.7071 15.2928C12.8946 15.4803 13 15.7346 13 15.9999C13 16.2651 12.8946 16.5194 12.7071 16.707C12.5196 16.8945 12.2652 16.9999 12 16.9999ZM12 7.99986C12.2652 7.99986 12.5196 8.10522 12.7071 8.29275C12.8946 8.48029 13 8.73464 13 8.99986V12.9999C13 13.2651 12.8946 13.5194 12.7071 13.707C12.5196 13.8945 12.2652 13.9999 12 13.9999C11.7348 13.9999 11.4804 13.8945 11.2929 13.707C11.1054 13.5194 11 13.2651 11 12.9999V8.99986C11 8.73464 11.1054 8.48029 11.2929 8.29275C11.4804 8.10522 11.7348 7.99986 12 7.99986Z" fill="currentColor"/>
</svg>
