<svg viewBox="0 0 16 16" >
<path d="M8.6665 7.33334H9.99984C10.1766 7.33334 10.3462 7.40358 10.4712 7.5286C10.5963 7.65362 10.6665 7.82319 10.6665 8C10.6665 8.17682 10.5963 8.34639 10.4712 8.47141C10.3462 8.59643 10.1766 8.66667 9.99984 8.66667H7.99984C7.82303 8.66667 7.65346 8.59643 7.52843 8.47141C7.40341 8.34639 7.33317 8.17682 7.33317 8V5.33334C7.33317 5.15653 7.40341 4.98696 7.52843 4.86193C7.65346 4.73691 7.82303 4.66667 7.99984 4.66667C8.17665 4.66667 8.34622 4.73691 8.47124 4.86193C8.59627 4.98696 8.6665 5.15653 8.6665 5.33334V7.33334ZM5.33317 3.38001V2.66667C5.33317 2.13624 5.54388 1.62753 5.91896 1.25246C6.29403 0.877385 6.80274 0.666672 7.33317 0.666672L8.6665 0.666672C9.19694 0.666672 9.70565 0.877385 10.0807 1.25246C10.4558 1.62753 10.6665 2.13624 10.6665 2.66667V3.38001C11.4776 3.84805 12.1511 4.52147 12.6192 5.3325C13.0873 6.14354 13.3336 7.06357 13.3332 8C13.3336 8.93644 13.0873 9.85647 12.6192 10.6675C12.1511 11.4785 11.4776 12.152 10.6665 12.62V13.3333C10.6665 13.8638 10.4558 14.3725 10.0807 14.7476C9.70565 15.1226 9.19694 15.3333 8.6665 15.3333H7.33317C6.80274 15.3333 6.29403 15.1226 5.91896 14.7476C5.54388 14.3725 5.33317 13.8638 5.33317 13.3333V12.62C4.52209 12.152 3.8486 11.4785 3.38047 10.6675C2.91234 9.85647 2.66609 8.93644 2.6665 8C2.66609 7.06357 2.91234 6.14354 3.38047 5.3325C3.8486 4.52147 4.52209 3.84805 5.33317 3.38001ZM6.6665 2.83467C7.10211 2.72278 7.55009 2.66633 7.99984 2.66667C8.45984 2.66667 8.9065 2.72534 9.33317 2.83467V2.66667C9.33317 2.48986 9.26293 2.32029 9.13791 2.19527C9.01289 2.07024 8.84332 2.00001 8.6665 2.00001H7.33317C7.15636 2.00001 6.98679 2.07024 6.86177 2.19527C6.73674 2.32029 6.6665 2.48986 6.6665 2.66667V2.83467ZM6.6665 13.1653V13.3333C6.6665 13.5101 6.73674 13.6797 6.86177 13.8047C6.98679 13.9298 7.15636 14 7.33317 14H8.6665C8.84332 14 9.01289 13.9298 9.13791 13.8047C9.26293 13.6797 9.33317 13.5101 9.33317 13.3333V13.1653C8.45845 13.3898 7.54123 13.3898 6.6665 13.1653ZM7.99984 12C8.52513 12 9.04527 11.8965 9.53057 11.6955C10.0159 11.4945 10.4568 11.1999 10.8283 10.8284C11.1997 10.457 11.4943 10.016 11.6954 9.53074C11.8964 9.04544 11.9998 8.52529 11.9998 8C11.9998 7.47472 11.8964 6.95457 11.6954 6.46927C11.4943 5.98397 11.1997 5.54301 10.8283 5.17158C10.4568 4.80014 10.0159 4.50551 9.53057 4.30449C9.04527 4.10347 8.52513 4 7.99984 4C6.93897 4.00001 5.92156 4.42143 5.17141 5.17158C4.42127 5.92172 3.99984 6.93914 3.99984 8C3.99984 9.06087 4.42127 10.0783 5.17141 10.8284C5.92156 11.5786 6.93897 12 7.99984 12Z" fill="currentColor"/>
</svg>
