<svg width="61" height="28" viewBox="0 0 61 28" fill="none" xmlns="http://www.w3.org/2000/svg">
<path d="M0.484802 21.9785H3.45144V14.4942H11.8466V21.9785H14.801V4.25259H11.8466V11.7123H3.45144V4.25259H0.484802V21.9785Z" fill="#F7F8FA"/>
<path d="M20.0001 27.8872H22.7821L30.1925 8.68408H27.2259L23.6191 18.1995L19.9016 8.68408H16.8119L22.1912 21.8801L20.0001 27.8872Z" fill="#F7F8FA"/>
<path d="M32.2746 21.9785H35.2412V3.8833H32.2746V21.9785Z" fill="#F7F8FA"/>
<path d="M44.9726 22.3478C46.2528 22.3478 47.4222 22.0196 48.4808 21.3631C49.5477 20.6983 50.3355 19.7628 50.8443 18.5564L47.9146 17.6701C47.3237 18.9339 46.2856 19.5658 44.8003 19.5658C43.7909 19.5658 42.9948 19.2745 42.4122 18.6919C41.8295 18.101 41.4807 17.2557 41.3658 16.1561H50.992C51.1069 14.5558 50.9305 13.1689 50.4627 11.9954C49.9949 10.8219 49.2769 9.91505 48.3085 9.27494C47.3484 8.63484 46.1789 8.31479 44.8003 8.31479C43.4954 8.31479 42.3465 8.61022 41.3535 9.20108C40.3606 9.78374 39.585 10.6126 39.027 11.6876C38.469 12.7627 38.1899 14.0265 38.1899 15.479C38.1899 16.8249 38.4731 18.0148 39.0393 19.0488C39.6138 20.0828 40.4098 20.8912 41.4274 21.4738C42.445 22.0565 43.6267 22.3478 44.9726 22.3478ZM44.9233 10.9121C45.8425 10.9121 46.5482 11.1542 47.0406 11.6384C47.5412 12.1144 47.8572 12.8735 47.9885 13.9157H41.4397C41.7926 11.9133 42.9538 10.9121 44.9233 10.9121Z" fill="#F7F8FA"/>
<path fill-rule="evenodd" clip-rule="evenodd" d="M60.7986 0.123536C60.9747 0.123537 61.0797 0.319747 60.982 0.466232L55.5955 8.54595C55.3604 8.89865 54.9676 9.11404 54.5438 9.12268C54.12 9.13133 53.7188 8.93214 53.4695 8.58932L50.1878 4.07709C50.117 3.97973 50.189 3.84351 50.3093 3.84714L51.2842 3.87662C52.5498 3.91488 53.7264 4.53662 54.4711 5.5606L56.7627 2.12331C57.6788 0.866685 59.1403 0.123525 60.6954 0.123535L60.7986 0.123536Z" fill="#557AFA"/>
</svg>
