<svg viewBox="0 0 61 28" fill="none" >
<path d="M0.484375 21.9785H3.45101V14.4942H11.8462V21.9785H14.8005V4.25259H11.8462V11.7123H3.45101V4.25259H0.484375V21.9785Z" fill="#081944"/>
<path d="M19.9996 27.8872H22.7816L30.1921 8.68408H27.2254L23.6187 18.1995L19.9012 8.68408H16.8114L22.1908 21.8801L19.9996 27.8872Z" fill="#081944"/>
<path d="M32.2741 21.9785H35.2408V3.8833H32.2741V21.9785Z" fill="#081944"/>
<path d="M44.9722 22.3478C46.2524 22.3478 47.4218 22.0196 48.4804 21.3631C49.5473 20.6983 50.3351 19.7628 50.8439 18.5564L47.9142 17.6701C47.3233 18.9339 46.2852 19.5658 44.7998 19.5658C43.7904 19.5658 42.9944 19.2745 42.4117 18.6919C41.8291 18.101 41.4803 17.2557 41.3654 16.1561H50.9916C51.1065 14.5558 50.93 13.1689 50.4623 11.9954C49.9945 10.8219 49.2764 9.91505 48.3081 9.27494C47.3479 8.63484 46.1785 8.31479 44.7998 8.31479C43.495 8.31479 42.3461 8.61022 41.3531 9.20108C40.3601 9.78374 39.5846 10.6126 39.0266 11.6876C38.4685 12.7627 38.1895 14.0265 38.1895 15.479C38.1895 16.8249 38.4726 18.0148 39.0389 19.0488C39.6133 20.0828 40.4094 20.8912 41.427 21.4738C42.4446 22.0565 43.6263 22.3478 44.9722 22.3478ZM44.9229 10.9121C45.842 10.9121 46.5478 11.1542 47.0402 11.6384C47.5408 12.1144 47.8567 12.8735 47.988 13.9157H41.4393C41.7922 11.9133 42.9534 10.9121 44.9229 10.9121Z" fill="#081944"/>
<path fill-rule="evenodd" clip-rule="evenodd" d="M60.7979 0.123536C60.974 0.123537 61.079 0.319747 60.9813 0.466232L55.5949 8.54595C55.3597 8.89865 54.9669 9.11404 54.5431 9.12268C54.1193 9.13133 53.7181 8.93214 53.4688 8.58932L50.1872 4.07709C50.1164 3.97973 50.1883 3.84351 50.3087 3.84714L51.2836 3.87662C52.5491 3.91488 53.7258 4.53662 54.4705 5.5606L56.762 2.12331C57.6781 0.866685 59.1396 0.123525 60.6947 0.123535L60.7979 0.123536Z" fill="#3F69FF"/>
</svg>
